# xmcd
#
# Track frame offsets:
#  150
#  14112
#  41195
#  53197
#  66223
#  80346
#  94316
#  114350
#  132599
#  149124
#  162664
#  175811
#  190685
#  204148
#  217823
#  252254
#  276125
#  297480
#  311569
#
# Disc length: 4321 seconds
#
# Revision: 1
# Processed by: cddbd v1.5.1PL2 Copyright (c) Steve Scherf et al.
# Submitted via: Collectorz.com_Music_Collector 6.10
#
DISCID=2810df13
DTITLE=Compilation Jazz - Le Jazz De Cabu [CD4)
DYEAR=2005
DGENRE=Jazz
TTITLE0=Oscar Peterson - Sweet Georgia Brown
TTITLE1=Oscar Peterson - Extended Blues
TTITLE2=Dinah Washington - New Bluetop Blues
TTITLE3=Dinah Washington - Trouble In Mind
TTITLE4=Charlie Parker - Now's The Time
TTITLE5=Charlie Parker - Parker's Mood
TTITLE6=Dizzie Gillespie - A Night In Tunisia
TTITLE7=Dizzie Gillespie - Cripple Crapple Crutch
TTITLE8=Bud Powell - Cherokee
TTITLE9=Bud Powell - Over The Rainbow
TTITLE10=Sarah Vaughan - Mean To Me
TTITLE11=Sarah Vaughan - Lover Man
TTITLE12=Stan Getz - Lover Come Back To Me
TTITLE13=Stan Getz - Down By The Sycamore Tree
TTITLE14=Thelonious Monk - Blue Monk
TTITLE15=Thelonious Monk - Round About Midnight
TTITLE16=Miles Davis - Solar
TTITLE17=Miles Davis - Smooch
TTITLE18=Duke Ellington - It Don't Mean A Thing If It Ain't Got That Swing
EXTD=
EXTT0=
EXTT1=
EXTT2=
EXTT3=
EXTT4=
EXTT5=
EXTT6=
EXTT7=
EXTT8=
EXTT9=
EXTT10=
EXTT11=
EXTT12=
EXTT13=
EXTT14=
EXTT15=
EXTT16=
EXTT17=
EXTT18=
PLAYORDER=
